<?xml version="1.0" encoding="utf-8"?>
<!-- Generator: Adobe Illustrator 19.2.1, SVG Export Plug-In . SVG Version: 6.00 Build 0)  -->
<svg version="1.1" id="Layer_1" xmlns="http://www.w3.org/2000/svg" xmlns:xlink="http://www.w3.org/1999/xlink" x="0px" y="0px" width="864px" height="864px" viewBox="0 0 864 864" enable-background="new 0 0 864 864" xml:space="preserve">
   <g fill="rgba(147, 110, 179, 1)">
      <path d="M179.6191,575.168c96.7332-177.7081,233.0467-293.1524,339.4498-361.1544
		c106.0596-67.7837,179.7737-91.4722,178.7957-94.2334c-0.2388-0.6763-76.1048,15.3604-186.8768,81.1104
		C400.689,266.3754,259.1638,382.0131,158.8864,563.8257l-0.0002,0.0005c-26.5669,48.2793-49.1985,98.9483-70.5186,152.6104
		c-17.8879,58.2686-10.3413,32.9355-46.3869,128.9493l0.007-0.0112l0.0002,0.0005c53.0708-85.3692,34.1375-47.5469,67.2437-120.9512
		c21.0659-53.1191,43.124-102.9004,68.8921-150.1275L179.6191,575.168z" />
      <path d="M800.8495,67.4246c-6.7524-3.0234-13.8804-3.8984-20.7737-3.8135c-17.9949,0.2231-35.0691,6.9463-48.1631,18.9648
		c-13.0952,12.0186-18.2981,17.5635-28.6838,37.3633l-0.0002,0.0005c30.7998-2.2925,68.438,15.2275,91.783,10.2861
		c9.1802-2.2612,17.6931-7.5415,22.54-16.2271c2.4241-4.3423,3.8835-9.4834,3.9932-14.9116
		c0.1099-5.4282-1.1582-11.1377-3.7988-16.1411C813.9752,75.8016,807.6019,70.4486,800.8495,67.4246z" />
      <path d="M715.9342,178.0302c-6.301-5.5386-14.0806-9.1548-22.0564-11.7549c-20.8228-6.7891-43.7481-6.9624-64.67-0.4902
		c-20.9229,6.4727-39.7454,19.5605-53.0977,36.9199l0.0005,0.0015c12.6592,0.918,25.1826,3.6738,37.0576,8.1538
		c10.9949,4.1484,21.3762,9.7397,32.0393,14.6797c10.6624,4.9399,21.7759,9.2744,33.4432,10.6704
		c11.6677,1.396,24.0374-0.3726,33.8435-6.8472c4.9041-3.2363,9.0857-7.6167,11.8542-12.7998
		c2.7686-5.1826,4.0872-11.1719,3.4827-17.0161C726.9677,191.202,722.2362,183.5697,715.9342,178.0302z" />
      <path d="M629.1153,231.5985c-6.3008-5.5391-14.0806-9.1548-22.0564-11.7554c-20.8228-6.7886-43.7483-6.9624-64.6699-0.4897
		c-20.9229,6.4722-39.7456,19.5601-53.0977,36.9194l0.0005,0.002c12.6592,0.918,25.1826,3.6738,37.0576,8.1538
		c10.9949,4.1484,21.3762,9.7397,32.0393,14.6797c10.6624,4.9399,21.7759,9.2744,33.4431,10.6704
		c11.6675,1.396,24.0374-0.3726,33.8435-6.8472c4.9041-3.2368,9.0857-7.6172,11.8542-12.7998
		c2.7683-5.1831,4.0874-11.1719,3.4827-17.0166C640.1487,244.7704,635.4173,237.1376,629.1153,231.5985z" />
      <path d="M549.6566,292.0614c-6.3008-5.5386-14.0806-9.1543-22.0564-11.7549c-20.8228-6.7891-43.7483-6.9624-64.67-0.4902
		c-20.9229,6.4727-39.7454,19.5605-53.0977,36.92l0.0007,0.0015c12.6589,0.918,25.1824,3.6738,37.0574,8.1538
		c10.9951,4.1484,21.3763,9.7397,32.0393,14.6797c10.6624,4.9399,21.7759,9.2744,33.4431,10.6704
		c11.6675,1.396,24.0374-0.3726,33.8435-6.8472c4.9038-3.2363,9.0857-7.6167,11.8542-12.7998
		c2.7683-5.1826,4.0872-11.1719,3.4827-17.0161C560.69,305.2333,555.9586,297.601,549.6566,292.0614z" />
      <path d="M475.2276,357.059c-6.301-5.5386-14.0806-9.1548-22.0564-11.7554c-20.8228-6.7886-43.7481-6.9619-64.67-0.4897
		c-20.9229,6.4727-39.7454,19.5601-53.0977,36.9194l0.0007,0.002c12.6589,0.918,25.1824,3.6738,37.0574,8.1538
		c10.9951,4.1484,21.3762,9.7398,32.0393,14.6797c10.6624,4.9399,21.7759,9.2739,33.4431,10.6704
		c11.6678,1.396,24.0374-0.373,33.8435-6.8477c4.9038-3.2363,9.0857-7.6167,11.8542-12.7998
		c2.7683-5.1826,4.0874-11.1714,3.4827-17.0161C486.261,370.2309,481.5296,362.5981,475.2276,357.059z" />
      <polygon points="270.8937,454.1186 270.8942,454.1181 270.8947,454.1176 	" />
      <path d="M404.1484,429.0776c-5.9888-5.2524-13.3909-8.646-20.9817-11.063c-19.8176-6.3096-41.6558-6.2524-61.6023,0.1621
		c-19.9458,6.4141-37.9072,19.1538-50.6697,35.9409c12.0557,0.7568,23.9785,3.2783,35.281,7.4619
		c10.4629,3.8726,20.3381,9.1353,30.4836,13.771c10.1445,4.6353,20.7207,8.6855,31.8306,9.9102
		c11.1108,1.2256,22.8975-0.5923,32.2551-6.8994c4.6794-3.1528,8.6741-7.3965,11.3235-12.396
		c2.6499-4.9995,3.9211-10.7593,3.3591-16.3599C414.6257,441.6074,410.1382,434.3305,404.1484,429.0776z" />
      <path d="M315.7243,480.0786c-12.6919-4.8525-27.623-5.144-42.1236-0.8242c-14.4995,4.3203-28.4968,13.2334-39.4895,25.1426
		l0.002,0.001c8.1372,0.73,15.9451,2.73,23.103,5.918c6.6277,2.9521,12.6658,6.8984,18.9715,10.3945
		c6.3064,3.4976,12.9868,6.5786,20.4153,7.6318c7.428,1.0532,15.7292-0.0776,22.9773-4.4829
		c3.624-2.2021,6.928-5.2017,9.4146-8.7656c2.4863-3.5649,4.1343-7.6978,4.5073-11.7451
		c0.5327-5.7793-1.5508-11.0947-4.9338-14.9731C325.1855,484.497,320.5857,481.937,315.7243,480.0786z" />
      <path d="M270.7202,529.1528c-11.0039-3.6167-23.8113-3.0186-36.127,1.688c-12.3164,4.7061-24.0847,13.499-33.198,24.8032
		l0.0007,0.0015c6.9937,0.1855,13.7385,1.5283,19.9558,3.9727c5.7571,2.2637,11.0347,5.4517,16.5298,8.2212
		c5.4963,2.77,11.302,5.147,17.6948,5.6621c6.3943,0.5161,13.4797-0.9756,19.5796-5.3398c3.0493-2.1821,5.804-5.0601,7.8433-8.397
		c2.04-3.3369,3.3445-7.1357,3.5605-10.7842c0.3074-5.209-1.616-9.8521-4.6157-13.1328S274.9355,530.5386,270.7202,529.1528z" />
      <path d="M234.9284,573.9658c-9.5686-2.2476-20.3516-0.7983-30.4155,4.0869c-10.0659,4.8862-19.3672,13.1865-26.2383,23.4131
		l-0.002,0.001c5.926-0.3584,11.7266,0.2798,17.1631,1.8882c5.0334,1.4897,9.7297,3.7964,14.5801,5.7334
		c4.8506,1.937,9.9334,3.5186,15.377,3.4839c5.4434-0.0352,11.324-1.8179,16.1582-5.9561c2.4172-2.0693,4.5339-4.7051,6.0122-7.6768
		c1.4802-2.9702,2.3022-6.2783,2.2151-9.3784c-0.1235-4.4263-2.0913-8.21-4.8684-10.7622
		C242.1323,576.2461,238.5939,574.8262,234.9284,573.9658z" />
      <polygon points="154.1811,643.5186 154.1813,643.5181 154.1813,643.5181 	" />
      <path d="M201.2968,620.7862c-7.9441-1.8853-16.9036-0.7031-25.2739,3.3364c-8.3706,4.0381-16.1126,10.9136-21.8416,19.3955
		c4.9233-0.2856,9.74,0.2559,14.2529,1.603c4.1782,1.2471,8.0745,3.1724,12.0999,4.791c4.0251,1.6187,8.2444,2.9424,12.7659,2.9243
		c4.5217-0.0181,9.4099-1.4873,13.4338-4.916c2.012-1.7144,3.7754-3.8989,5.009-6.3643c1.2341-2.4653,1.9248-5.2104,1.8589-7.7856
		c-0.094-3.6772-1.7212-6.8237-4.0235-8.9497C207.2763,622.6954,204.3398,621.5089,201.2968,620.7862z" />
      <path d="M175.4147,662.3472c-6.7603-1.8682-14.4888-1.1338-21.8015,2.0703c-7.3127,3.2046-14.1746,8.8643-19.3582,15.9663
		l-0.0005,0.0005c4.2354-0.0913,8.3535,0.5249,12.1855,1.8228c3.5474,1.2021,6.832,2.9766,10.2366,4.4922
		c3.4053,1.5151,6.9851,2.7847,10.8679,2.9111c3.8821,0.126,8.1245-0.9819,11.6865-3.7993c1.7805-1.4087,3.3606-3.2319,4.5-5.3062
		c1.1372-2.0771,1.8154-4.4131,1.8398-6.626c0.0347-3.1592-1.2637-5.9116-3.1733-7.8086
		C180.4882,664.1729,178.0046,663.063,175.4147,662.3472z" />
      <polygon points="560.3035,157.0311 560.3038,157.0306 560.3028,157.0306 	" />
      <path d="M560.3038,157.0306c21.4292-4.5176,41.3779-15.8154,56.2722-31.8706c14.8953-16.0576,24.6667-36.7964,27.5649-58.5039
		c1.1099-8.3154,1.2197-16.8936-1.0439-24.9717s-7.0945-15.648-14.2424-20.04c-5.0056-3.0757-10.9753-4.481-16.8459-4.23
		c-5.8691,0.25-11.6289,2.1226-16.6702,5.1416c-10.083,6.0366-17.0334,16.4185-20.8279,27.54
		c-3.7935,11.1216-4.6997,23.0151-4.8647,34.7656c-0.165,11.7495,0.3792,23.5288-0.6431,35.2354
		C567.8975,132.7411,564.9583,145.223,560.3038,157.0306z" />
      <path d="M484.7913,188.1425c20.4961-7.7197,38.4971-21.9165,50.7808-40.0488s18.793-40.1157,18.3604-62.0122
		c-0.166-8.3872-1.3608-16.8828-4.8252-24.5234c-3.4648-7.6411-9.3889-14.3892-17.1208-17.6445
		c-5.415-2.2803-11.5288-2.7622-17.293-1.6226c-5.7637,1.1392-11.1721,3.8647-15.6963,7.6138
		c-9.0488,7.4971-14.3416,18.8145-16.4031,30.3838c-2.0615,11.5679-1.1509,23.4624,0.4707,35.1011
		c1.6218,11.6396,3.9485,23.1992,4.7161,34.9253c0.8289,12.6655-0.1809,25.4487-2.9883,37.8267L484.7913,188.1425z" />
      <path d="M464.9383,176.9237c5.8098-21.1167,4.9155-44.0239-2.5251-64.6221c-2.8503-7.8901-6.7092-15.5518-12.4436-21.6758
		c-5.7339-6.123-13.512-10.6123-21.8799-11.2124c-5.8601-0.4204-11.8049,1.0859-16.8979,4.0161
		c-5.0925,2.9297-9.3394,7.2471-12.4199,12.251c-6.1633,10.0059-7.5415,22.4243-5.7788,34.0425
		c1.7627,11.6167,6.4446,22.5884,11.7178,33.0903c5.2729,10.5029,11.1875,20.7031,15.6797,31.5615
		c4.8516,11.729,8.001,24.1602,9.3167,36.7837l-0.0002-0.0015C446.6377,217.266,459.1275,198.0399,464.9383,176.9237z" />
      <path d="M341.0007,260.9442c4.9487,11.6875,8.2004,24.0923,9.6208,36.7046l0.0027,0.001
		c16.8157-14.0322,29.1451-33.3604,34.7805-54.5244s4.5508-44.064-3.0608-64.6001c-2.9165-7.8662-6.8391-15.4961-12.624-21.5718
		c-5.7847-6.0757-13.5994-10.4995-21.9722-11.0308c-5.8638-0.3721-11.7961,1.1846-16.8647,4.1567
		c-5.0679,2.9712-9.2783,7.3247-12.3181,12.353c-6.0801,10.0566-7.3552,22.4858-5.4963,34.0889
		c1.8589,11.604,6.6309,22.5357,11.9907,32.9932S336.4189,250.1234,341.0007,260.9442z" />
      <path d="M297.5569,234.8876c-5.5073-5.7539-12.9729-9.9214-20.998-10.3745c-5.6199-0.3174-11.3189,1.2026-16.1983,4.0679
		c-4.8794,2.8647-8.9453,7.0405-11.8921,11.8521c-5.8933,9.6231-7.1973,21.4771-5.4895,32.5244
		c1.7075,11.0483,6.2141,21.437,11.2859,31.3701c5.0718,9.9341,10.7593,19.5713,15.0835,29.856
		c4.6697,11.1084,7.7085,22.9102,8.9893,34.9219l0.0007-0.0005c16.2146-13.479,28.1628-31.9795,33.7029-52.1855
		c5.5398-20.2061,4.6475-42.0259-2.5183-61.5513C306.7776,247.8896,303.0652,240.642,297.5569,234.8876z" />
      <path d="M156.7697,393.7929c-3.6235,1.8408-6.8557,4.8985-9.251,8.5249c-2.3943,3.627-3.9617,7.8047-4.6702,11.9858
		c-1.4182,8.3628,0.5957,16.4946,4.3169,23.0088c3.7214,6.5146,9.0515,11.585,14.6296,16.1553
		c5.5784,4.5698,11.4749,8.7241,16.6653,13.7935c5.606,5.4751,10.3479,11.9932,14.0305,19.2862l0.0015-0.0005
		c7.0085-14.6104,10.124-30.9107,8.7859-45.981c-1.3386-15.0703-7.1226-28.8398-16.3176-38.8433
		c-3.5229-3.8316-7.6001-7.1612-12.4536-8.8731C167.653,391.1376,161.944,391.1635,156.7697,393.7929z" />
      <path d="M126.8417,463.8935c-3.0684,1.9854-5.7312,4.9927-7.6294,8.4121c-1.8989,3.4194-3.0454,7.2339-3.4414,10.9629
		c-0.7917,7.4585,1.4019,14.3589,5.0017,19.6685c3.5989,5.3091,8.5274,9.1899,13.6467,12.6069
		c5.1179,3.417,10.4924,6.4385,15.2991,10.332c5.1907,4.2056,9.6831,9.4131,13.2908,15.4072h0.002
		c5.3455-13.5005,7.1975-28.0737,5.2234-41.1099c-1.9736-13.0361-7.7649-24.4751-16.3345-32.2681
		c-3.2827-2.9849-7.0234-5.4736-11.3564-6.4673C136.2108,460.4443,131.2228,461.0591,126.8417,463.8935z" />
      <path d="M106.7706,524.6841c-1.8574,2.751-3.1074,5.8911-3.717,9.0142c-1.2189,6.2461,0.1277,12.2417,2.7798,16.9956
		c2.6526,4.7534,6.5334,8.397,10.6091,11.6631c4.0757,3.2661,8.3967,6.2163,12.1733,9.8618
		c4.0789,3.938,7.4927,8.6704,10.1011,14.0039v-0.0024c5.5129-11.0186,8.1514-23.2021,7.4429-34.3687
		c-0.7085-11.1646-4.7612-21.2617-11.4319-28.4805c-2.5549-2.7656-5.5342-5.1445-9.124-6.3037
		c-3.5896-1.1587-7.8513-1.0063-11.7639,1.0674C111.0997,519.5869,108.6261,521.9321,106.7706,524.6841z" />
      <path d="M91.4989,579.4785c-1.5374,2.2886-2.5693,4.8999-3.0693,7.4951c-1.0006,5.1909,0.1299,10.1685,2.3423,14.1118
		c2.2123,3.9438,5.4431,6.9624,8.8352,9.6675c3.3923,2.7051,6.9875,5.1465,10.1316,8.1675
		c3.3962,3.2632,6.2412,7.188,8.4185,11.6128c4.5579-9.165,6.7253-19.2901,6.1145-28.564
		c-0.6104-9.2739-3.9966-17.6528-9.552-23.6362c-2.1282-2.2915-4.6074-4.2622-7.5918-5.2178
		c-2.9841-0.9561-6.524-0.8208-9.77,0.9092C95.0846,575.2363,93.0358,577.1904,91.4989,579.4785z" />
      <path d="M80.3373,620.5518c-1.9132,1.1113-3.6115,2.8525-4.8586,4.8662c-1.2437,2.0137-2.0511,4.2871-2.3995,6.5303
		c-0.6962,4.4878,0.4303,8.7251,2.453,12.041c2.0236,3.3164,4.8923,5.8057,7.8887,8.0225c2.9961,2.2158,6.1589,4.1992,8.9531,6.6934
		c3.0176,2.6953,5.583,5.9746,7.5908,9.7051l0.0005-0.0005c3.6252-8.0103,5.1687-16.77,4.3535-24.7124
		c-0.8157-7.9419-3.9851-15.0288-8.9419-19.9907c-1.8989-1.9009-4.0889-3.5151-6.6809-4.2417
		C86.1041,618.7383,83.0697,618.9649,80.3373,620.5518z" />
      <path d="M227.0539,301.4315c-6.2456-4.9443-14.2124-8.0479-22.2236-7.3955c-5.6104,0.457-11.0464,2.7446-15.4866,6.252
		c-4.4443,3.5044-7.8943,8.2012-10.1533,13.3721c-4.5178,10.3403-4.1821,22.2617-0.9746,32.9702
		c3.2063,10.7075,9.0962,20.3809,15.4834,29.5239c6.3862,9.1431,13.343,17.9087,19.0376,27.503
		c6.1506,10.3618,10.7783,21.6353,13.6953,33.3579l0.0017,0.001c14.2114-15.5762,23.5085-35.5415,26.2234-56.3169
		c2.7144-20.7754-1.1628-42.2646-10.9404-60.6226C237.9714,313.0449,233.2997,306.3759,227.0539,301.4315z" />
   </g>
</svg>
