<?xml version="1.0" encoding="utf-8"?>
<!-- Generator: Adobe Illustrator 19.2.1, SVG Export Plug-In . SVG Version: 6.00 Build 0)  -->
<svg version="1.1" id="Layer_1" xmlns="http://www.w3.org/2000/svg" xmlns:xlink="http://www.w3.org/1999/xlink" x="0px" y="0px" width="864px" height="864px" viewBox="0 0 864 864" enable-background="new 0 0 864 864" xml:space="preserve">
   <g>
      <path fill="rgba(147, 110, 179, 1)" d="M508.2392,437.5899c122.7666-74.4641,264.5-95.1083,262.2334-236.8257c-13.7471-69.0629-70.3516-48.2319-121.604-95.6801
		c-43.6499-40.4107-77.5972-72.3399-117.9239-71.9953l-0.001-0.0013c-4.1714,0.0296-8.416,0.4154-12.7412,1.1688
		C399.9223,54.834,409.3408,256.5535,417.537,340.0799C373.4453,284.0271,316.8369,91.9726,207.1657,91.8409
		c-53.3293-0.0587-66.2031,73.7009-106.2061,122.8256c-40.2258,49.3987-93.7722,82.325-81.99,134.642
		c23.0264,102.248,273.836,120.0251,273.836,120.0251S84.0182,528.3452,76.0985,623.949
		c-4.6897,56.6082,49.9251,72.4099,101.4097,117.5894c54.4883,47.8152,70.8047,97.3988,129.2989,83.5305
		C413.912,799.6748,442.4809,539.637,442.4809,539.637S557.6918,789.7722,671.543,785.7133
		c56.5273-2.0154,66.6343-71.4356,105.0908-127.6673c36.8237-53.8438,82.7935-86.2408,64.5513-137.2366
		C801.5264,409.9429,508.2392,437.5899,508.2392,437.5899z M414.079,509.0384c-37.6377,0-68.1494-30.5112-68.1494-68.1492
		s30.5117-68.149,68.1494-68.149c37.6372,0,68.149,30.5111,68.149,68.149S451.7162,509.0384,414.079,509.0384z" />
   </g>
</svg>
